<mxfile host="app.diagrams.net" agent="Mozilla/5.0 (Windows NT 10.0; Win64; x64) AppleWebKit/537.36 (KHTML, like Gecko) Chrome/133.0.0.0 Safari/537.36" version="26.0.14">
  <diagram name="P치gina-1" id="2dV1ckaZqj4ryktsQF3N">
    <mxGraphModel dx="2501" dy="1907" grid="1" gridSize="10" guides="1" tooltips="1" connect="1" arrows="1" fold="1" page="1" pageScale="1" pageWidth="827" pageHeight="1169" math="0" shadow="0">
      <root>
        <mxCell id="0" />
        <mxCell id="1" parent="0" />
        <mxCell id="4CO3H4v2DkT37EJGmf2N-1" value="Eventos" style="rounded=0;whiteSpace=wrap;html=1;" parent="1" vertex="1">
          <mxGeometry x="210" y="90" width="130" height="60" as="geometry" />
        </mxCell>
        <mxCell id="4CO3H4v2DkT37EJGmf2N-2" value="" style="triangle;whiteSpace=wrap;html=1;rotation=90;" parent="1" vertex="1">
          <mxGeometry x="250" y="180" width="60" height="80" as="geometry" />
        </mxCell>
        <mxCell id="4CO3H4v2DkT37EJGmf2N-4" value="" style="endArrow=none;html=1;rounded=0;entryX=0.5;entryY=1;entryDx=0;entryDy=0;exitX=0;exitY=0.5;exitDx=0;exitDy=0;" parent="1" source="4CO3H4v2DkT37EJGmf2N-2" target="4CO3H4v2DkT37EJGmf2N-1" edge="1">
          <mxGeometry width="50" height="50" relative="1" as="geometry">
            <mxPoint x="390" y="410" as="sourcePoint" />
            <mxPoint x="440" y="360" as="targetPoint" />
          </mxGeometry>
        </mxCell>
        <mxCell id="4CO3H4v2DkT37EJGmf2N-5" value="" style="endArrow=none;html=1;rounded=0;" parent="1" edge="1">
          <mxGeometry width="50" height="50" relative="1" as="geometry">
            <mxPoint x="280" y="250" as="sourcePoint" />
            <mxPoint x="360" y="310" as="targetPoint" />
            <Array as="points">
              <mxPoint x="280" y="250" />
            </Array>
          </mxGeometry>
        </mxCell>
        <mxCell id="4CO3H4v2DkT37EJGmf2N-7" value="Talleres" style="rounded=0;whiteSpace=wrap;html=1;" parent="1" vertex="1">
          <mxGeometry x="140" y="310" width="120" height="60" as="geometry" />
        </mxCell>
        <mxCell id="4CO3H4v2DkT37EJGmf2N-8" value="Conferencias" style="rounded=0;whiteSpace=wrap;html=1;" parent="1" vertex="1">
          <mxGeometry x="320" y="310" width="120" height="60" as="geometry" />
        </mxCell>
        <mxCell id="4CO3H4v2DkT37EJGmf2N-14" value="fecha" style="ellipse;whiteSpace=wrap;html=1;" parent="1" vertex="1">
          <mxGeometry x="530" y="-20" width="100" height="50" as="geometry" />
        </mxCell>
        <mxCell id="4CO3H4v2DkT37EJGmf2N-15" value="nombre" style="ellipse;whiteSpace=wrap;html=1;" parent="1" vertex="1">
          <mxGeometry x="140" y="-45" width="110" height="55" as="geometry" />
        </mxCell>
        <mxCell id="4CO3H4v2DkT37EJGmf2N-16" value="&lt;u&gt;id_evento&lt;/u&gt;" style="ellipse;whiteSpace=wrap;html=1;" parent="1" vertex="1">
          <mxGeometry x="40" y="20" width="100" height="50" as="geometry" />
        </mxCell>
        <mxCell id="4CO3H4v2DkT37EJGmf2N-17" value="lugar" style="ellipse;whiteSpace=wrap;html=1;" parent="1" vertex="1">
          <mxGeometry x="400" y="-25" width="100" height="60" as="geometry" />
        </mxCell>
        <mxCell id="4CO3H4v2DkT37EJGmf2N-18" value="" style="endArrow=none;html=1;rounded=0;entryX=0.5;entryY=1;entryDx=0;entryDy=0;" parent="1" source="4CO3H4v2DkT37EJGmf2N-29" target="4CO3H4v2DkT37EJGmf2N-17" edge="1">
          <mxGeometry width="50" height="50" relative="1" as="geometry">
            <mxPoint x="347" y="50" as="sourcePoint" />
            <mxPoint x="440" y="60" as="targetPoint" />
          </mxGeometry>
        </mxCell>
        <mxCell id="4CO3H4v2DkT37EJGmf2N-19" value="" style="endArrow=none;html=1;rounded=0;entryX=0.33;entryY=0.92;entryDx=0;entryDy=0;entryPerimeter=0;exitX=1;exitY=0;exitDx=0;exitDy=0;" parent="1" source="4CO3H4v2DkT37EJGmf2N-29" target="4CO3H4v2DkT37EJGmf2N-14" edge="1">
          <mxGeometry width="50" height="50" relative="1" as="geometry">
            <mxPoint x="390" y="80" as="sourcePoint" />
            <mxPoint x="440" y="60" as="targetPoint" />
          </mxGeometry>
        </mxCell>
        <mxCell id="4CO3H4v2DkT37EJGmf2N-20" value="" style="endArrow=none;html=1;rounded=0;exitX=0.25;exitY=0;exitDx=0;exitDy=0;entryX=0.5;entryY=1;entryDx=0;entryDy=0;" parent="1" source="4CO3H4v2DkT37EJGmf2N-1" target="4CO3H4v2DkT37EJGmf2N-15" edge="1">
          <mxGeometry width="50" height="50" relative="1" as="geometry">
            <mxPoint x="390" y="110" as="sourcePoint" />
            <mxPoint x="440" y="60" as="targetPoint" />
          </mxGeometry>
        </mxCell>
        <mxCell id="4CO3H4v2DkT37EJGmf2N-21" value="" style="endArrow=none;html=1;rounded=0;exitX=0;exitY=0.5;exitDx=0;exitDy=0;entryX=1;entryY=1;entryDx=0;entryDy=0;" parent="1" source="4CO3H4v2DkT37EJGmf2N-1" target="4CO3H4v2DkT37EJGmf2N-16" edge="1">
          <mxGeometry width="50" height="50" relative="1" as="geometry">
            <mxPoint x="390" y="110" as="sourcePoint" />
            <mxPoint x="440" y="60" as="targetPoint" />
          </mxGeometry>
        </mxCell>
        <mxCell id="4CO3H4v2DkT37EJGmf2N-22" value="Descripci칩n" style="ellipse;whiteSpace=wrap;html=1;" parent="1" vertex="1">
          <mxGeometry x="45" y="140" width="95" height="40" as="geometry" />
        </mxCell>
        <mxCell id="4CO3H4v2DkT37EJGmf2N-23" value="" style="endArrow=none;html=1;rounded=0;exitX=1;exitY=0.5;exitDx=0;exitDy=0;entryX=0;entryY=0.75;entryDx=0;entryDy=0;" parent="1" source="4CO3H4v2DkT37EJGmf2N-22" target="4CO3H4v2DkT37EJGmf2N-1" edge="1">
          <mxGeometry width="50" height="50" relative="1" as="geometry">
            <mxPoint x="390" y="110" as="sourcePoint" />
            <mxPoint x="440" y="60" as="targetPoint" />
          </mxGeometry>
        </mxCell>
        <mxCell id="4CO3H4v2DkT37EJGmf2N-28" value="" style="endArrow=none;html=1;rounded=0;exitX=1;exitY=0.5;exitDx=0;exitDy=0;" parent="1" source="4CO3H4v2DkT37EJGmf2N-29" edge="1">
          <mxGeometry width="50" height="50" relative="1" as="geometry">
            <mxPoint x="390" y="310" as="sourcePoint" />
            <mxPoint x="520" y="120" as="targetPoint" />
          </mxGeometry>
        </mxCell>
        <mxCell id="4CO3H4v2DkT37EJGmf2N-31" value="" style="edgeStyle=orthogonalEdgeStyle;rounded=0;orthogonalLoop=1;jettySize=auto;html=1;entryX=0.5;entryY=0;entryDx=0;entryDy=0;" parent="1" source="4CO3H4v2DkT37EJGmf2N-29" target="4CO3H4v2DkT37EJGmf2N-36" edge="1">
          <mxGeometry relative="1" as="geometry">
            <mxPoint x="750" y="120" as="targetPoint" />
            <Array as="points">
              <mxPoint x="740" y="110" />
            </Array>
          </mxGeometry>
        </mxCell>
        <mxCell id="4CO3H4v2DkT37EJGmf2N-36" value="Usuarios" style="whiteSpace=wrap;html=1;" parent="1" vertex="1">
          <mxGeometry x="690" y="130" width="100" height="40" as="geometry" />
        </mxCell>
        <mxCell id="4CO3H4v2DkT37EJGmf2N-42" value="" style="endArrow=none;html=1;rounded=0;exitX=1;exitY=0.5;exitDx=0;exitDy=0;" parent="1" source="4CO3H4v2DkT37EJGmf2N-1" target="4CO3H4v2DkT37EJGmf2N-29" edge="1">
          <mxGeometry width="50" height="50" relative="1" as="geometry">
            <mxPoint x="340" y="120" as="sourcePoint" />
            <mxPoint x="520" y="120" as="targetPoint" />
          </mxGeometry>
        </mxCell>
        <mxCell id="4CO3H4v2DkT37EJGmf2N-29" value="inscribir" style="rhombus;whiteSpace=wrap;html=1;" parent="1" vertex="1">
          <mxGeometry x="470" y="90" width="90" height="60" as="geometry" />
        </mxCell>
        <mxCell id="4CO3H4v2DkT37EJGmf2N-43" value="" style="endArrow=none;html=1;rounded=0;entryX=0.75;entryY=0;entryDx=0;entryDy=0;" parent="1" target="4CO3H4v2DkT37EJGmf2N-36" edge="1">
          <mxGeometry width="50" height="50" relative="1" as="geometry">
            <mxPoint x="840" y="70" as="sourcePoint" />
            <mxPoint x="440" y="260" as="targetPoint" />
          </mxGeometry>
        </mxCell>
        <mxCell id="4CO3H4v2DkT37EJGmf2N-44" value="" style="endArrow=none;html=1;rounded=0;entryX=0.75;entryY=1;entryDx=0;entryDy=0;exitX=0.5;exitY=0;exitDx=0;exitDy=0;" parent="1" source="4CO3H4v2DkT37EJGmf2N-45" target="4CO3H4v2DkT37EJGmf2N-36" edge="1">
          <mxGeometry width="50" height="50" relative="1" as="geometry">
            <mxPoint x="765" y="240" as="sourcePoint" />
            <mxPoint x="440" y="260" as="targetPoint" />
          </mxGeometry>
        </mxCell>
        <mxCell id="4CO3H4v2DkT37EJGmf2N-45" value="nombre" style="ellipse;whiteSpace=wrap;html=1;" parent="1" vertex="1">
          <mxGeometry x="800" y="240" width="90" height="50" as="geometry" />
        </mxCell>
        <mxCell id="4CO3H4v2DkT37EJGmf2N-46" value="correo electr칩nico" style="ellipse;whiteSpace=wrap;html=1;" parent="1" vertex="1">
          <mxGeometry x="840" y="40" width="90" height="55" as="geometry" />
        </mxCell>
        <mxCell id="4CO3H4v2DkT37EJGmf2N-47" value="Contrase침a" style="ellipse;whiteSpace=wrap;html=1;" parent="1" vertex="1">
          <mxGeometry x="840" y="130" width="90" height="60" as="geometry" />
        </mxCell>
        <mxCell id="4CO3H4v2DkT37EJGmf2N-48" value="" style="endArrow=none;html=1;rounded=0;entryX=0;entryY=0.5;entryDx=0;entryDy=0;exitX=1;exitY=0.5;exitDx=0;exitDy=0;" parent="1" source="4CO3H4v2DkT37EJGmf2N-36" target="4CO3H4v2DkT37EJGmf2N-47" edge="1">
          <mxGeometry width="50" height="50" relative="1" as="geometry">
            <mxPoint x="390" y="310" as="sourcePoint" />
            <mxPoint x="440" y="260" as="targetPoint" />
          </mxGeometry>
        </mxCell>
        <mxCell id="4CO3H4v2DkT37EJGmf2N-52" value="" style="endArrow=none;html=1;rounded=0;entryX=0;entryY=0.5;entryDx=0;entryDy=0;" parent="1" target="4CO3H4v2DkT37EJGmf2N-1" edge="1">
          <mxGeometry width="50" height="50" relative="1" as="geometry">
            <mxPoint x="40" y="120" as="sourcePoint" />
            <mxPoint x="440" y="260" as="targetPoint" />
          </mxGeometry>
        </mxCell>
        <mxCell id="4CO3H4v2DkT37EJGmf2N-54" value="Organizadores" style="rounded=0;whiteSpace=wrap;html=1;" parent="1" vertex="1">
          <mxGeometry x="-260" y="90" width="120" height="60" as="geometry" />
        </mxCell>
        <mxCell id="4CO3H4v2DkT37EJGmf2N-55" value="organizan" style="rhombus;whiteSpace=wrap;html=1;" parent="1" vertex="1">
          <mxGeometry x="-70" y="93.75" width="110" height="52.5" as="geometry" />
        </mxCell>
        <mxCell id="4CO3H4v2DkT37EJGmf2N-56" value="" style="endArrow=none;html=1;rounded=0;entryX=0;entryY=0.5;entryDx=0;entryDy=0;exitX=1;exitY=0.5;exitDx=0;exitDy=0;" parent="1" source="4CO3H4v2DkT37EJGmf2N-54" target="4CO3H4v2DkT37EJGmf2N-55" edge="1">
          <mxGeometry width="50" height="50" relative="1" as="geometry">
            <mxPoint x="390" y="310" as="sourcePoint" />
            <mxPoint x="440" y="260" as="targetPoint" />
          </mxGeometry>
        </mxCell>
        <mxCell id="4CO3H4v2DkT37EJGmf2N-57" value="" style="triangle;whiteSpace=wrap;html=1;rotation=90;" parent="1" vertex="1">
          <mxGeometry x="-230" y="200" width="60" height="80" as="geometry" />
        </mxCell>
        <mxCell id="4CO3H4v2DkT37EJGmf2N-58" value="" style="endArrow=none;html=1;rounded=0;entryX=0.5;entryY=1;entryDx=0;entryDy=0;exitX=0;exitY=0.5;exitDx=0;exitDy=0;" parent="1" source="4CO3H4v2DkT37EJGmf2N-57" target="4CO3H4v2DkT37EJGmf2N-54" edge="1">
          <mxGeometry width="50" height="50" relative="1" as="geometry">
            <mxPoint x="390" y="310" as="sourcePoint" />
            <mxPoint x="440" y="260" as="targetPoint" />
          </mxGeometry>
        </mxCell>
        <mxCell id="4CO3H4v2DkT37EJGmf2N-60" value="Empresa" style="rounded=0;whiteSpace=wrap;html=1;" parent="1" vertex="1">
          <mxGeometry x="-350" y="310" width="120" height="60" as="geometry" />
        </mxCell>
        <mxCell id="4CO3H4v2DkT37EJGmf2N-61" value="Instituciones" style="rounded=0;whiteSpace=wrap;html=1;" parent="1" vertex="1">
          <mxGeometry x="-170" y="310" width="120" height="60" as="geometry" />
        </mxCell>
        <mxCell id="4CO3H4v2DkT37EJGmf2N-62" value="" style="endArrow=none;html=1;rounded=0;entryX=1;entryY=0.5;entryDx=0;entryDy=0;exitX=0.5;exitY=0;exitDx=0;exitDy=0;" parent="1" source="4CO3H4v2DkT37EJGmf2N-61" target="4CO3H4v2DkT37EJGmf2N-57" edge="1">
          <mxGeometry width="50" height="50" relative="1" as="geometry">
            <mxPoint x="-160" y="310" as="sourcePoint" />
            <mxPoint x="-110" y="260" as="targetPoint" />
          </mxGeometry>
        </mxCell>
        <mxCell id="4CO3H4v2DkT37EJGmf2N-63" value="" style="endArrow=none;html=1;rounded=0;exitX=0.5;exitY=0;exitDx=0;exitDy=0;" parent="1" source="4CO3H4v2DkT37EJGmf2N-60" edge="1">
          <mxGeometry width="50" height="50" relative="1" as="geometry">
            <mxPoint x="-160" y="310" as="sourcePoint" />
            <mxPoint x="-200" y="270" as="targetPoint" />
          </mxGeometry>
        </mxCell>
        <mxCell id="4CO3H4v2DkT37EJGmf2N-64" value="nombre" style="ellipse;whiteSpace=wrap;html=1;" parent="1" vertex="1">
          <mxGeometry x="-413" y="10" width="90" height="50" as="geometry" />
        </mxCell>
        <mxCell id="4CO3H4v2DkT37EJGmf2N-66" value="" style="endArrow=none;html=1;rounded=0;entryX=0;entryY=0.5;entryDx=0;entryDy=0;exitX=1;exitY=0.5;exitDx=0;exitDy=0;" parent="1" source="4CO3H4v2DkT37EJGmf2N-67" target="4CO3H4v2DkT37EJGmf2N-54" edge="1">
          <mxGeometry width="50" height="50" relative="1" as="geometry">
            <mxPoint x="-375.98" y="54.5" as="sourcePoint" />
            <mxPoint x="-334.0240000000001" y="15.5" as="targetPoint" />
          </mxGeometry>
        </mxCell>
        <mxCell id="4CO3H4v2DkT37EJGmf2N-67" value="telefono" style="ellipse;whiteSpace=wrap;html=1;" parent="1" vertex="1">
          <mxGeometry x="-453" y="106.25" width="80" height="40" as="geometry" />
        </mxCell>
        <mxCell id="4CO3H4v2DkT37EJGmf2N-68" value="" style="endArrow=none;html=1;rounded=0;exitX=1;exitY=0.5;exitDx=0;exitDy=0;" parent="1" source="4CO3H4v2DkT37EJGmf2N-70" target="4CO3H4v2DkT37EJGmf2N-54" edge="1">
          <mxGeometry width="50" height="50" relative="1" as="geometry">
            <mxPoint x="-350" y="500" as="sourcePoint" />
            <mxPoint x="-337.54928886626635" y="162.7276767805306" as="targetPoint" />
          </mxGeometry>
        </mxCell>
        <mxCell id="4CO3H4v2DkT37EJGmf2N-70" value="email" style="ellipse;whiteSpace=wrap;html=1;" parent="1" vertex="1">
          <mxGeometry x="-413" y="200" width="80" height="40" as="geometry" />
        </mxCell>
        <mxCell id="4CO3H4v2DkT37EJGmf2N-72" value="" style="endArrow=none;html=1;rounded=0;entryX=1;entryY=0.5;entryDx=0;entryDy=0;exitX=0;exitY=0;exitDx=0;exitDy=0;" parent="1" source="4CO3H4v2DkT37EJGmf2N-54" target="4CO3H4v2DkT37EJGmf2N-64" edge="1">
          <mxGeometry width="50" height="50" relative="1" as="geometry">
            <mxPoint x="-280" y="70" as="sourcePoint" />
            <mxPoint x="-110" y="260" as="targetPoint" />
          </mxGeometry>
        </mxCell>
        <mxCell id="4CO3H4v2DkT37EJGmf2N-85" value="&lt;u&gt;id _organizador&lt;/u&gt;" style="ellipse;whiteSpace=wrap;html=1;" parent="1" vertex="1">
          <mxGeometry x="-250" width="100" height="40" as="geometry" />
        </mxCell>
        <mxCell id="4CO3H4v2DkT37EJGmf2N-86" value="" style="endArrow=none;html=1;rounded=0;entryX=0.5;entryY=1;entryDx=0;entryDy=0;exitX=0.5;exitY=0;exitDx=0;exitDy=0;" parent="1" source="4CO3H4v2DkT37EJGmf2N-54" target="4CO3H4v2DkT37EJGmf2N-85" edge="1">
          <mxGeometry width="50" height="50" relative="1" as="geometry">
            <mxPoint x="40" y="310" as="sourcePoint" />
            <mxPoint x="90" y="260" as="targetPoint" />
          </mxGeometry>
        </mxCell>
        <mxCell id="tdiUal7fGd0oDg372pWD-3" value="" style="endArrow=none;html=1;rounded=0;entryX=1;entryY=0.5;entryDx=0;entryDy=0;exitX=0.5;exitY=0;exitDx=0;exitDy=0;" parent="1" source="4CO3H4v2DkT37EJGmf2N-7" target="4CO3H4v2DkT37EJGmf2N-2" edge="1">
          <mxGeometry width="50" height="50" relative="1" as="geometry">
            <mxPoint x="130" y="292.98" as="sourcePoint" />
            <mxPoint x="187.03499999999985" y="259.99500000000035" as="targetPoint" />
            <Array as="points" />
          </mxGeometry>
        </mxCell>
        <mxCell id="tdiUal7fGd0oDg372pWD-2" value="" style="shape=requiredInterface;html=1;verticalLabelPosition=bottom;sketch=0;rotation=90;" parent="1" vertex="1">
          <mxGeometry x="263.13" y="230" width="33.75" height="70" as="geometry" />
        </mxCell>
        <mxCell id="tdiUal7fGd0oDg372pWD-7" value="" style="shape=requiredInterface;html=1;verticalLabelPosition=bottom;sketch=0;rotation=90;" parent="1" vertex="1">
          <mxGeometry x="-222.5" y="240" width="45" height="70" as="geometry" />
        </mxCell>
        <mxCell id="tdiUal7fGd0oDg372pWD-8" value="&lt;u&gt;DNI&lt;/u&gt;" style="ellipse;whiteSpace=wrap;html=1;" parent="1" vertex="1">
          <mxGeometry x="690" y="280" width="93" height="50" as="geometry" />
        </mxCell>
        <mxCell id="tdiUal7fGd0oDg372pWD-9" value="" style="endArrow=none;html=1;rounded=0;entryX=0.75;entryY=1;entryDx=0;entryDy=0;exitX=0.5;exitY=0;exitDx=0;exitDy=0;" parent="1" source="tdiUal7fGd0oDg372pWD-8" target="4CO3H4v2DkT37EJGmf2N-36" edge="1">
          <mxGeometry width="50" height="50" relative="1" as="geometry">
            <mxPoint x="610" y="90" as="sourcePoint" />
            <mxPoint x="660" y="40" as="targetPoint" />
          </mxGeometry>
        </mxCell>
        <mxCell id="csqG3b9uLTceKmsQvokb-1" value="" style="endArrow=none;html=1;rounded=0;entryX=0.054;entryY=0.95;entryDx=0;entryDy=0;entryPerimeter=0;" parent="1" target="4CO3H4v2DkT37EJGmf2N-1" edge="1">
          <mxGeometry width="50" height="50" relative="1" as="geometry">
            <mxPoint x="130" y="230" as="sourcePoint" />
            <mxPoint x="230" y="240" as="targetPoint" />
          </mxGeometry>
        </mxCell>
        <mxCell id="csqG3b9uLTceKmsQvokb-2" value="Fecha" style="ellipse;whiteSpace=wrap;html=1;" parent="1" vertex="1">
          <mxGeometry x="60" y="210" width="82.5" height="40" as="geometry" />
        </mxCell>
        <mxCell id="eHQc2wD0B7Gwr8ZM6Vax-2" value="&lt;font style=&quot;font-size: 12px;&quot;&gt;N:M&lt;/font&gt;" style="text;strokeColor=none;fillColor=none;html=1;fontSize=24;fontStyle=1;verticalAlign=middle;align=center;" vertex="1" parent="1">
          <mxGeometry x="470" y="146.25" width="100" height="40" as="geometry" />
        </mxCell>
        <mxCell id="eHQc2wD0B7Gwr8ZM6Vax-3" value="&lt;font style=&quot;font-size: 12px;&quot;&gt;N:M&lt;/font&gt;" style="text;strokeColor=none;fillColor=none;html=1;fontSize=24;fontStyle=1;verticalAlign=middle;align=center;" vertex="1" parent="1">
          <mxGeometry x="-65" y="140" width="100" height="40" as="geometry" />
        </mxCell>
        <mxCell id="eHQc2wD0B7Gwr8ZM6Vax-4" value="" style="endArrow=none;html=1;rounded=0;entryX=1;entryY=0;entryDx=0;entryDy=0;" edge="1" parent="1" target="4CO3H4v2DkT37EJGmf2N-55">
          <mxGeometry width="50" height="50" relative="1" as="geometry">
            <mxPoint x="13" as="sourcePoint" />
            <mxPoint x="100" y="140" as="targetPoint" />
          </mxGeometry>
        </mxCell>
        <mxCell id="eHQc2wD0B7Gwr8ZM6Vax-5" value="" style="endArrow=none;html=1;rounded=0;exitX=0;exitY=0;exitDx=0;exitDy=0;" edge="1" parent="1" source="4CO3H4v2DkT37EJGmf2N-55" target="eHQc2wD0B7Gwr8ZM6Vax-6">
          <mxGeometry width="50" height="50" relative="1" as="geometry">
            <mxPoint x="50" y="190" as="sourcePoint" />
            <mxPoint x="-80" as="targetPoint" />
          </mxGeometry>
        </mxCell>
        <mxCell id="eHQc2wD0B7Gwr8ZM6Vax-6" value="fecha" style="ellipse;whiteSpace=wrap;html=1;" vertex="1" parent="1">
          <mxGeometry x="-140" y="-30" width="90" height="40" as="geometry" />
        </mxCell>
        <mxCell id="eHQc2wD0B7Gwr8ZM6Vax-7" value="lugar" style="ellipse;whiteSpace=wrap;html=1;" vertex="1" parent="1">
          <mxGeometry x="-30" y="-40" width="90" height="40" as="geometry" />
        </mxCell>
      </root>
    </mxGraphModel>
  </diagram>
</mxfile>
